<?xml version="1.0" encoding="iso-8859-1"?>
<!-- Uploaded to: SVG Repo, www.svgrepo.com, Generator: SVG Repo Mixer Tools -->
<svg height="800px" width="800px" version="1.1" id="Layer_1" xmlns="http://www.w3.org/2000/svg" xmlns:xlink="http://www.w3.org/1999/xlink" 
	 viewBox="0 0 504.123 504.123" xml:space="preserve">
<path style="fill:#A3C0C4;" d="M72.2,176.766c0,6.522-5.285,11.815-11.815,11.815l0,0c-6.514,0-11.815-5.293-11.815-11.815V78.304
	c0-6.522,5.301-11.815,11.815-11.815l0,0c6.53,0,11.815,5.293,11.815,11.815V176.766z"/>
<path style="fill:#003E89;" d="M504.123,431.711c0,17.77-14.399,32.185-32.177,32.185H32.185C14.415,463.896,0,449.481,0,431.711
	V217.198c0-17.778,14.415-32.177,32.185-32.177h439.761c17.778,0,32.177,14.399,32.177,32.177V431.711z"/>
<path style="fill:#085BBF;" d="M504.123,404.141c0,17.77-14.399,32.185-32.177,32.185H32.185C14.415,436.326,0,421.912,0,404.141
	V189.629c0-17.778,14.415-32.177,32.185-32.177h439.761c17.778,0,32.177,14.399,32.177,32.177V404.141z"/>
<path style="fill:#177ADD;" d="M0,189.629c0-17.778,14.415-32.177,32.185-32.177h439.761c17.778,0,32.177,14.399,32.177,32.177"/>
<path style="fill:#566366;" d="M129.969,223.342c52.137,0,94.681,40.487,98.194,91.719c0.142-2.064,0.347-4.104,0.347-6.215
	c0-54.422-44.119-98.532-98.54-98.532c-54.414,0-98.54,44.119-98.54,98.532c0,2.111,0.197,4.151,0.339,6.215
	C35.289,263.83,77.848,223.342,129.969,223.342z"/>
<path style="fill:#003E89;" d="M129.969,216.828c-54.414,0-98.54,44.111-98.54,98.525c0,25.214,9.507,74.894,25.104,128.843h146.881
	c15.588-53.957,25.096-103.613,25.096-128.843C228.51,260.939,184.391,216.828,129.969,216.828z"/>
<circle style="fill:#121C1B;" cx="129.969" cy="315.353" r="98.54"/>
<path style="fill:#283538;" d="M60.29,385.032c-38.479-38.479-38.479-100.864,0-139.343c38.487-38.487,100.872-38.487,139.351,0"/>
<path style="fill:#121C1B;" d="M136.074,271.139c0,3.371-2.741,6.105-6.105,6.105l0,0c-3.371,0-6.105-2.741-6.105-6.105v-21.22
	c0-3.371,2.741-6.105,6.105-6.105l0,0c3.371,0,6.105,2.741,6.105,6.105V271.139z"/>
<path style="fill:#65E83A;" d="M136.074,261.742c0,3.387-2.741,6.12-6.105,6.12l0,0c-3.371,0-6.105-2.741-6.105-6.12v-21.205
	c0-3.379,2.741-6.112,6.105-6.112l0,0c3.371,0,6.105,2.741,6.105,6.113V261.742z"/>
<path style="fill:#003E89;" d="M476.562,244.382c0,12.327-9.996,22.315-22.315,22.315H257.308c-12.312,0-22.307-9.988-22.307-22.315
	l0,0c0-12.32,9.996-22.315,22.307-22.315h196.939C466.566,222.066,476.562,232.054,476.562,244.382L476.562,244.382z"/>
<path style="fill:#FAFDFE;" d="M476.562,232.566c0,12.32-9.996,22.315-22.315,22.315H257.308c-12.312,0-22.307-9.996-22.307-22.315
	l0,0c0-12.32,9.996-22.315,22.307-22.315h196.939C466.566,210.251,476.562,220.239,476.562,232.566L476.562,232.566z"/>
<path style="fill:#DDE9ED;" d="M257.308,210.251h196.939c12.319,0,22.315,9.996,22.315,22.315l0,0
	c0,12.32-9.996,22.315-22.315,22.315"/>
<path style="fill:#65E83A;" d="M286.192,237.489c0,5.435-4.411,9.846-9.854,9.846l0,0c-5.427,0-9.838-4.411-9.838-9.846v-9.846
	c0-5.435,4.411-9.846,9.838-9.846l0,0c5.443,0,9.854,4.411,9.854,9.846V237.489z"/>
<path style="fill:#41BC13;" d="M276.338,217.797L276.338,217.797c5.443,0,9.854,4.411,9.854,9.846v9.846
	c0,5.435-4.411,9.846-9.854,9.846l0,0"/>
<path style="fill:#7E9799;" d="M88.615,59.266c0,10.516-8.523,19.039-19.031,19.039H51.2c-10.508,0-19.031-8.523-19.031-19.039l0,0
	c0-10.516,8.523-19.039,19.031-19.039h18.385C80.093,40.227,88.615,48.75,88.615,59.266L88.615,59.266z"/>
<path style="fill:#637F7F;" d="M88.615,59.266L88.615,59.266c0,10.516-8.523,19.039-19.031,19.039H51.2
	c-10.508,0-19.031-8.523-19.031-19.039l0,0"/>
<g>
	<circle style="fill:#003E89;" cx="297.039" cy="297.511" r="8.862"/>
	<circle style="fill:#003E89;" cx="343.276" cy="297.511" r="8.862"/>
	<circle style="fill:#003E89;" cx="389.585" cy="297.511" r="8.862"/>
	<circle style="fill:#003E89;" cx="435.862" cy="297.511" r="8.862"/>
	<circle style="fill:#003E89;" cx="297.039" cy="336.896" r="8.862"/>
	<circle style="fill:#003E89;" cx="343.276" cy="336.896" r="8.862"/>
	<circle style="fill:#003E89;" cx="389.585" cy="336.896" r="8.862"/>
	<circle style="fill:#003E89;" cx="435.862" cy="336.896" r="8.862"/>
	<circle style="fill:#003E89;" cx="297.039" cy="376.281" r="8.862"/>
	<circle style="fill:#003E89;" cx="343.276" cy="376.281" r="8.862"/>
	<circle style="fill:#003E89;" cx="389.585" cy="376.281" r="8.862"/>
	<circle style="fill:#003E89;" cx="435.862" cy="376.281" r="8.862"/>
</g>
</svg>