<svg width="288" height="288" viewBox="0 0 288 288" fill="none" xmlns="http://www.w3.org/2000/svg">
<path d="M101.526 100.665L178.927 81.3519" stroke="url(#paint0_linear_601_76)" stroke-width="4"/>
<path d="M101.526 100.664L140.841 90.8548" stroke="url(#paint1_linear_601_76)" stroke-width="6"/>
<path opacity="0.2" d="M141.411 88.2602L140.183 88.5668L141.5 93.143L142.728 92.8365L141.411 88.2602Z" fill="black"/>
<path d="M175.242 82.2715C175.787 84.167 177.879 85.2919 179.915 84.784C181.951 84.2761 183.159 82.3277 182.613 80.4322C182.068 78.5366 179.975 77.4117 177.94 77.9197C175.904 78.4276 174.696 80.3759 175.242 82.2715Z" fill="url(#paint2_radial_601_76)"/>
<path d="M101.526 105.402C104.336 105.402 106.614 103.281 106.614 100.665C106.614 98.048 104.336 95.9269 101.526 95.9269C98.7164 95.9269 96.4386 98.048 96.4386 100.665C96.4386 103.281 98.7164 105.402 101.526 105.402Z" fill="#77767B"/>
<path d="M101.526 105.402C104.336 105.402 106.614 103.281 106.614 100.665C106.614 98.048 104.336 95.9269 101.526 95.9269C98.7164 95.9269 96.4386 98.048 96.4386 100.665C96.4386 103.281 98.7164 105.402 101.526 105.402Z" fill="#3D3846"/>
<path d="M101.489 98.2633C100.815 98.2725 100.172 98.5306 99.702 98.9808C99.232 99.4311 98.9732 100.037 98.9824 100.665V107.771C98.9777 108.085 99.0399 108.397 99.1656 108.688C99.2913 108.979 99.478 109.244 99.7147 109.468C99.9513 109.691 100.233 109.869 100.544 109.99C100.855 110.111 101.189 110.174 101.526 110.174C101.863 110.174 102.197 110.111 102.508 109.99C102.819 109.869 103.101 109.691 103.338 109.468C103.575 109.244 103.761 108.979 103.887 108.688C104.013 108.397 104.075 108.085 104.07 107.771V100.665C104.075 100.348 104.011 100.033 103.883 99.74C103.755 99.4466 103.565 99.18 103.324 98.9561C103.084 98.7323 102.797 98.5556 102.482 98.4366C102.167 98.3176 101.829 98.2587 101.489 98.2633Z" fill="url(#paint3_linear_601_76)"/>
<path d="M106.614 105.402H96.4386C95.0336 105.402 93.8947 106.463 93.8947 107.771V110.14C93.8947 111.448 95.0336 112.509 96.4386 112.509H106.614C108.019 112.509 109.158 111.448 109.158 110.14V107.771C109.158 106.463 108.019 105.402 106.614 105.402Z" fill="#63452C"/>
<mask id="mask0_601_76" style="mask-type:luminance" maskUnits="userSpaceOnUse" x="71" y="95" width="95" height="117">
<path d="M165.123 95.9269H71V212H165.123V95.9269Z" fill="white"/>
</mask>
<g mask="url(#mask0_601_76)">
<path d="M205.825 114.878H83.7193C78.0996 114.878 73.5439 119.12 73.5439 124.353V195.418C73.5439 200.651 78.0996 204.893 83.7193 204.893H205.825C211.444 204.893 216 200.651 216 195.418V124.353C216 119.12 211.444 114.878 205.825 114.878Z" fill="url(#paint4_linear_601_76)"/>
<path d="M205.825 110.14H83.7193C78.0996 110.14 73.5439 114.382 73.5439 119.615V185.943C73.5439 191.176 78.0996 195.418 83.7193 195.418H205.825C211.444 195.418 216 191.176 216 185.943V119.615C216 114.382 211.444 110.14 205.825 110.14Z" fill="#E5A50A"/>
</g>
<path d="M165.123 122.01V204.893H205.825C211.462 204.893 216 200.667 216 195.418V131.485C216 126.236 211.462 122.01 205.825 122.01H165.123Z" fill="url(#paint5_linear_601_76)"/>
<path d="M165.123 110.14V195.418H205.825C211.462 195.418 216 191.192 216 185.943V119.615C216 114.366 211.462 110.14 205.825 110.14H165.123Z" fill="#63452C"/>
<path d="M200.737 138.566C200.737 133.333 196.181 129.091 190.561 129.091C184.942 129.091 180.386 133.333 180.386 138.566V140.935C180.386 146.168 184.942 150.41 190.561 150.41C196.181 150.41 200.737 146.168 200.737 140.935V138.566Z" fill="#BD7B08"/>
<path d="M190.561 148.041C196.181 148.041 200.737 143.799 200.737 138.566C200.737 133.333 196.181 129.091 190.561 129.091C184.942 129.091 180.386 133.333 180.386 138.566C180.386 143.799 184.942 148.041 190.561 148.041Z" fill="#E5A50A"/>
<path d="M186.746 134.198C187.668 134.198 188.415 133.502 188.415 132.644C188.415 131.785 187.668 131.089 186.746 131.089C185.824 131.089 185.076 131.785 185.076 132.644C185.076 133.502 185.824 134.198 186.746 134.198Z" fill="#63452C"/>
<path d="M185.474 157.517H182.93C181.525 157.517 180.386 158.577 180.386 159.886V162.254C180.386 163.563 181.525 164.623 182.93 164.623H185.474C186.879 164.623 188.018 163.563 188.018 162.254V159.886C188.018 158.577 186.879 157.517 185.474 157.517Z" fill="#BD7B08"/>
<path d="M185.474 157.517H182.93C181.525 157.517 180.386 158.577 180.386 159.886C180.386 161.194 181.525 162.254 182.93 162.254H185.474C186.879 162.254 188.018 161.194 188.018 159.886C188.018 158.577 186.879 157.517 185.474 157.517Z" fill="#E5A50A"/>
<path d="M198.193 157.517H195.649C194.244 157.517 193.105 158.577 193.105 159.886V162.254C193.105 163.563 194.244 164.623 195.649 164.623H198.193C199.598 164.623 200.737 163.563 200.737 162.254V159.886C200.737 158.577 199.598 157.517 198.193 157.517Z" fill="#BD7B08"/>
<path d="M198.193 157.517H195.649C194.244 157.517 193.105 158.577 193.105 159.886C193.105 161.194 194.244 162.254 195.649 162.254H198.193C199.598 162.254 200.737 161.194 200.737 159.886C200.737 158.577 199.598 157.517 198.193 157.517Z" fill="#E5A50A"/>
<path d="M185.474 169.361H182.93C181.525 169.361 180.386 170.422 180.386 171.73V174.099C180.386 175.407 181.525 176.467 182.93 176.467H185.474C186.879 176.467 188.018 175.407 188.018 174.099V171.73C188.018 170.422 186.879 169.361 185.474 169.361Z" fill="#BD7B08"/>
<path d="M185.474 169.361H182.93C181.525 169.361 180.386 170.422 180.386 171.73C180.386 173.038 181.525 174.099 182.93 174.099H185.474C186.879 174.099 188.018 173.038 188.018 171.73C188.018 170.422 186.879 169.361 185.474 169.361Z" fill="#E5A50A"/>
<path d="M198.193 169.361H195.649C194.244 169.361 193.105 170.422 193.105 171.73V174.099C193.105 175.407 194.244 176.467 195.649 176.467H198.193C199.598 176.467 200.737 175.407 200.737 174.099V171.73C200.737 170.422 199.598 169.361 198.193 169.361Z" fill="#BD7B08"/>
<path d="M198.193 169.361H195.649C194.244 169.361 193.105 170.422 193.105 171.73C193.105 173.038 194.244 174.099 195.649 174.099H198.193C199.598 174.099 200.737 173.038 200.737 171.73C200.737 170.422 199.598 169.361 198.193 169.361Z" fill="#E5A50A"/>
<path d="M119.333 126.722C113.595 126.733 108 128.387 103.305 131.459H135.396C130.692 128.381 125.083 126.727 119.333 126.722ZM97.7652 136.197C96.4758 137.659 95.3612 139.248 94.4413 140.935H144.258C143.324 139.246 142.194 137.657 140.889 136.197H97.7652ZM92.439 145.672C91.962 147.221 91.6401 148.807 91.4776 150.41H147.177C147.025 148.808 146.714 147.222 146.248 145.672H92.439ZM91.49 155.148C91.642 156.75 91.953 158.336 92.4191 159.885H146.228C146.705 158.337 147.027 156.751 147.189 155.148H91.49ZM94.409 164.623C95.343 166.312 96.4726 167.901 97.7776 169.361H140.901C142.191 167.899 143.305 166.31 144.225 164.623H94.409ZM103.27 174.098C107.975 177.177 113.583 178.831 119.333 178.836C125.071 178.825 130.667 177.171 135.362 174.098H103.27Z" fill="#63452C"/>
<defs>
<linearGradient id="paint0_linear_601_76" x1="-nan" y1="-nan" x2="-nan" y2="-nan" gradientUnits="userSpaceOnUse">
<stop stop-color="#77767B"/>
<stop offset="0.075" stop-color="#9A9996"/>
<stop offset="0.3525" stop-color="#C1BFB9"/>
<stop offset="1" stop-color="#77767B"/>
</linearGradient>
<linearGradient id="paint1_linear_601_76" x1="-nan" y1="-nan" x2="-nan" y2="-nan" gradientUnits="userSpaceOnUse">
<stop stop-color="#77767B"/>
<stop offset="0.075" stop-color="#9A9996"/>
<stop offset="0.3525" stop-color="#DEDDDA"/>
<stop offset="1" stop-color="#77767B"/>
</linearGradient>
<radialGradient id="paint2_radial_601_76" cx="0" cy="0" r="1" gradientUnits="userSpaceOnUse" gradientTransform="translate(178.916 80.6519) rotate(90) scale(3.47736 3.9418)">
<stop stop-color="#FEFEFE"/>
<stop offset="0.6" stop-color="#BBBAB7"/>
<stop offset="1" stop-color="#5E5C64"/>
</radialGradient>
<linearGradient id="paint3_linear_601_76" x1="98.9822" y1="104.218" x2="104.07" y2="104.218" gradientUnits="userSpaceOnUse">
<stop stop-color="#9A9996"/>
<stop offset="0.119491" stop-color="#C0BFBC"/>
<stop offset="0.350902" stop-color="#DEDDDA"/>
<stop offset="0.601801" stop-color="#D2D1CE"/>
<stop offset="0.852699" stop-color="#BBBAB7"/>
<stop offset="1" stop-color="#9A9996"/>
</linearGradient>
<linearGradient id="paint4_linear_601_76" x1="73.5439" y1="204.893" x2="216" y2="204.893" gradientUnits="userSpaceOnUse">
<stop stop-color="#AB7007"/>
<stop offset="0.0357143" stop-color="#F5B918"/>
<stop offset="0.0713653" stop-color="#BD7B08"/>
<stop offset="0.928571" stop-color="#BD7B08"/>
<stop offset="0.964286" stop-color="#63452C"/>
<stop offset="1" stop-color="#AB7007"/>
</linearGradient>
<linearGradient id="paint5_linear_601_76" x1="73.5439" y1="204.893" x2="216" y2="204.893" gradientUnits="userSpaceOnUse">
<stop stop-color="#AB7007"/>
<stop offset="0.0357143" stop-color="#F5B918"/>
<stop offset="0.0713653" stop-color="#3D2B1B"/>
<stop offset="0.928571" stop-color="#3D2B1B"/>
<stop offset="0.964286" stop-color="#765335"/>
<stop offset="1" stop-color="#3D2B1B"/>
</linearGradient>
</defs>
</svg>
