<svg width="288" height="288" viewBox="0 0 288 288" fill="none" xmlns="http://www.w3.org/2000/svg">
<g clip-path="url(#clip0_1_2)">
<path d="M90.4828 118.596C90.4828 120.537 88.9103 122.112 86.9673 122.112C85.0291 122.112 83.4518 120.537 83.4518 118.596V89.2991C83.4518 87.3585 85.0291 85.7836 86.9673 85.7836C88.9103 85.7836 90.4828 87.3585 90.4828 89.2991V118.596Z" fill="#A3C0C4"/>
<path d="M219 194.454C219 199.741 214.716 204.031 209.426 204.031H78.5765C73.2891 204.031 69 199.741 69 194.454V130.626C69 125.337 73.2891 121.052 78.5765 121.052H209.426C214.716 121.052 219 125.337 219 130.626V194.454Z" fill="#003E89"/>
<path d="M219 186.251C219 191.538 214.716 195.827 209.426 195.827H78.5765C73.2891 195.827 69 191.538 69 186.251V122.423C69 117.134 73.2891 112.849 78.5765 112.849H209.426C214.716 112.849 219 117.134 219 122.423V186.251Z" fill="#085BBF"/>
<path d="M69 122.423C69 117.134 73.2891 112.849 78.5765 112.849H209.426C214.716 112.849 219 117.134 219 122.423" fill="#177ADD"/>
<path d="M107.672 132.455C123.185 132.455 135.844 144.501 136.889 159.745C136.931 159.131 136.992 158.524 136.992 157.896C136.992 141.703 123.865 128.578 107.672 128.578C91.4814 128.578 78.3519 141.706 78.3519 157.896C78.3519 158.524 78.4105 159.131 78.4528 159.745C79.5001 144.502 92.1634 132.455 107.672 132.455Z" fill="#566366"/>
<path d="M107.672 130.516C91.4811 130.516 78.3516 143.641 78.3516 159.832C78.3516 167.334 81.1804 182.117 85.8212 198.169H129.525C134.163 182.114 136.992 167.339 136.992 159.832C136.992 143.641 123.865 130.516 107.672 130.516Z" fill="#003E89"/>
<path d="M107.672 189.152C123.865 189.152 136.992 176.025 136.992 159.832C136.992 143.639 123.865 130.512 107.672 130.512C91.4787 130.512 78.3516 143.639 78.3516 159.832C78.3516 176.025 91.4787 189.152 107.672 189.152Z" fill="#121C1B"/>
<path d="M86.9391 180.565C75.4898 169.116 75.4898 150.553 86.9391 139.104C98.3907 127.652 116.953 127.652 128.402 139.104" fill="#283538"/>
<path d="M109.488 146.676C109.488 147.679 108.673 148.493 107.672 148.493C106.669 148.493 105.855 147.677 105.855 146.676V140.363C105.855 139.359 106.671 138.546 107.672 138.546C108.675 138.546 109.488 139.362 109.488 140.363V146.676Z" fill="#121C1B"/>
<path d="M109.488 143.88C109.488 144.888 108.673 145.701 107.672 145.701C106.669 145.701 105.855 144.886 105.855 143.88V137.571C105.855 136.566 106.671 135.752 107.672 135.752C108.675 135.752 109.488 136.568 109.488 137.571V143.88Z" fill="#65E83A"/>
<path d="M210.799 138.715C210.799 142.383 207.825 145.355 204.16 145.355H145.561C141.898 145.355 138.924 142.383 138.924 138.715C138.924 135.049 141.898 132.075 145.561 132.075H204.16C207.825 132.075 210.799 135.047 210.799 138.715Z" fill="#003E89"/>
<path d="M210.799 135.199C210.799 138.865 207.825 141.839 204.16 141.839H145.561C141.898 141.839 138.924 138.865 138.924 135.199C138.924 131.533 141.898 128.559 145.561 128.559H204.16C207.825 128.559 210.799 131.531 210.799 135.199Z" fill="#FAFDFE"/>
<path d="M145.561 128.559H204.16C207.825 128.559 210.799 131.534 210.799 135.199C210.799 138.865 207.825 141.839 204.16 141.839" fill="#DDE9ED"/>
<path d="M154.155 136.664C154.155 138.281 152.843 139.594 151.223 139.594C149.609 139.594 148.296 138.281 148.296 136.664V133.734C148.296 132.117 149.609 130.805 151.223 130.805C152.843 130.805 154.155 132.117 154.155 133.734V136.664Z" fill="#65E83A"/>
<path d="M151.223 130.805C152.843 130.805 154.155 132.117 154.155 133.734V136.664C154.155 138.281 152.843 139.594 151.223 139.594" fill="#41BC13"/>
<path d="M95.3671 83.6344C95.3671 86.7634 92.8311 89.2994 89.7045 89.2994H84.2344C81.1078 89.2994 78.5718 86.7634 78.5718 83.6344C78.5718 80.5054 81.1078 77.9694 84.2344 77.9694H89.7048C92.8314 77.9694 95.3671 80.5054 95.3671 83.6344Z" fill="#7E9799"/>
<path d="M95.3671 83.6344C95.3671 86.7634 92.8311 89.2994 89.7045 89.2994H84.2344C81.1078 89.2994 78.5718 86.7634 78.5718 83.6344" fill="#637F7F"/>
<path d="M157.383 157.16C158.839 157.16 160.02 155.98 160.02 154.523C160.02 153.067 158.839 151.886 157.383 151.886C155.927 151.886 154.746 153.067 154.746 154.523C154.746 155.98 155.927 157.16 157.383 157.16Z" fill="#003E89"/>
<path d="M171.141 157.16C172.597 157.16 173.777 155.98 173.777 154.523C173.777 153.067 172.597 151.886 171.141 151.886C169.684 151.886 168.504 153.067 168.504 154.523C168.504 155.98 169.684 157.16 171.141 157.16Z" fill="#003E89"/>
<path d="M184.92 157.16C186.376 157.16 187.556 155.98 187.556 154.523C187.556 153.067 186.376 151.886 184.92 151.886C183.463 151.886 182.283 153.067 182.283 154.523C182.283 155.98 183.463 157.16 184.92 157.16Z" fill="#003E89"/>
<path d="M198.689 157.16C200.145 157.16 201.326 155.98 201.326 154.523C201.326 153.067 200.145 151.886 198.689 151.886C197.233 151.886 196.052 153.067 196.052 154.523C196.052 155.98 197.233 157.16 198.689 157.16Z" fill="#003E89"/>
<path d="M157.383 168.879C158.839 168.879 160.02 167.698 160.02 166.242C160.02 164.786 158.839 163.605 157.383 163.605C155.927 163.605 154.746 164.786 154.746 166.242C154.746 167.698 155.927 168.879 157.383 168.879Z" fill="#003E89"/>
<path d="M171.141 168.879C172.597 168.879 173.777 167.698 173.777 166.242C173.777 164.786 172.597 163.605 171.141 163.605C169.684 163.605 168.504 164.786 168.504 166.242C168.504 167.698 169.684 168.879 171.141 168.879Z" fill="#003E89"/>
<path d="M184.92 168.879C186.376 168.879 187.556 167.698 187.556 166.242C187.556 164.786 186.376 163.605 184.92 163.605C183.463 163.605 182.283 164.786 182.283 166.242C182.283 167.698 183.463 168.879 184.92 168.879Z" fill="#003E89"/>
<path d="M198.689 168.879C200.145 168.879 201.326 167.698 201.326 166.242C201.326 164.786 200.145 163.605 198.689 163.605C197.233 163.605 196.052 164.786 196.052 166.242C196.052 167.698 197.233 168.879 198.689 168.879Z" fill="#003E89"/>
<path d="M157.383 180.598C158.839 180.598 160.02 179.417 160.02 177.961C160.02 176.505 158.839 175.324 157.383 175.324C155.927 175.324 154.746 176.505 154.746 177.961C154.746 179.417 155.927 180.598 157.383 180.598Z" fill="#003E89"/>
<path d="M171.141 180.598C172.597 180.598 173.777 179.417 173.777 177.961C173.777 176.505 172.597 175.324 171.141 175.324C169.684 175.324 168.504 176.505 168.504 177.961C168.504 179.417 169.684 180.598 171.141 180.598Z" fill="#003E89"/>
<path d="M184.92 180.598C186.376 180.598 187.556 179.417 187.556 177.961C187.556 176.505 186.376 175.324 184.92 175.324C183.463 175.324 182.283 176.505 182.283 177.961C182.283 179.417 183.463 180.598 184.92 180.598Z" fill="#003E89"/>
<path d="M198.689 180.598C200.145 180.598 201.326 179.417 201.326 177.961C201.326 176.505 200.145 175.324 198.689 175.324C197.233 175.324 196.052 176.505 196.052 177.961C196.052 179.417 197.233 180.598 198.689 180.598Z" fill="#003E89"/>
</g>
<defs>
<clipPath id="clip0_1_2">
<rect width="150" height="150" fill="white" transform="translate(69 66)"/>
</clipPath>
</defs>
</svg>
